<svg xmlns="http://www.w3.org/2000/svg" version="1.1" xmlns:xlink="http://www.w3.org/1999/xlink" xmlns:svgjs="http://svgjs.dev/svgjs" width="100%" height="100%" viewBox="0 0 1000 600"><rect width="1000" height="600" x="0" y="0" fill="#ff7f00"/><g><rect width="333.3333333333333" height="333.3333333333333" rx="13.333333333333334" ry="13.333333333333334" y="280.5258039326879" fill="#ffffff" transform="matrix(0.4839267251133159,0,0,0.4839267251133159,0,83.5916162674775)" x="258.3035583496094"/><path d="M422.108318391739 372.1924798589459L422.108318391739 372.1924798589459Q440.1649666459635 372.1924798589459 450.78652444256613 375.49696450677783Q461.4080822391688 378.80144915460977 466.18778324763997 387.0626607741896Q470.9674842561112 395.3533767209822 470.9674842561112 410.4300879267155L470.9674842561112 410.4300879267155Q470.9674842561112 426.15589433112996 465.1256274679797 434.44661027792256Q459.28377067984826 442.73732622471516 446.1248407429461 444.00601229486495L446.1248407429461 444.00601229486495L446.1248407429461 444.86163778403574Q462.47023801882904 446.336854144675 468.9611900056418 456.3388210698091Q475.4226376652417 466.31128366773055 475.4226376652417 483.95487134097607L475.4226376652417 483.95487134097607Q475.4226376652417 499.0315825467093 470.7609539656217 507.3222984935019Q466.0992702660016 515.5835101130817 455.7727557415268 518.8879947609137Q445.4757455442648 522.1924794087456 428.68778336019005 522.1924794087456L428.68778336019005 522.1924794087456Q416.17794862196916 522.1924794087456 407.1496244948569 522.0744620998944Q398.12130036774465 521.9564447910433 390.4501752924205 521.5433842100643Q382.8085545443092 521.1303236290853 374.5178385975165 520.481228430404L374.5178385975165 520.481228430404L377.4977756460078 505.61104751516035Q382.18896367284066 505.8175778056499 395.2298763008917 506.02410809613934Q408.30029325615556 506.2601427138416 425.73735063891155 506.2601427138416L425.73735063891155 506.2601427138416Q437.42106421517445 506.2601427138416 444.0890421652639 504.2243441361594Q450.78652444256613 502.21804988569005 453.6484441822063 496.70074069689923Q456.5398682490593 491.1539271808956 456.5398682490593 480.76840400199524L456.5398682490593 480.76840400199524Q456.5398682490593 469.2912207162218 453.5599312005679 463.1248163287497Q450.57999415207667 456.95841194127763 443.5579642754338 454.4210398009781Q436.56543872600366 451.8541633334658 424.43916024154896 451.6476330429763L424.43916024154896 451.6476330429763L377.2912453555183 451.6476330429763L377.2912453555183 437.42654732641387L424.2326299510595 437.42654732641387Q434.8541877476622 437.22001703592434 441.1386094439854 435.1842184582422Q447.39352681309583 433.1779242077728 450.1669335710976 427.7491280006203Q452.91083600188665 422.34983612068066 452.91083600188665 412.554399486036L452.91083600188665 412.554399486036Q452.91083600188665 402.5819368881146 449.9308989533954 397.2711579898133Q446.98046623211684 391.9603790915119 440.07645366432513 390.0425978226809Q433.1724410965334 388.1248165538499 421.25269290256824 388.1248165538499L421.25269290256824 388.1248165538499Q410.8671697236678 388.1248165538499 402.5764537768752 388.1248165538499Q394.28573783008255 388.1248165538499 388.0308204609721 388.24283386270105Q381.7463987646489 388.36085117155216 377.4977756460078 388.77391175253115L377.4977756460078 388.77391175253115L374.5178385975165 373.90373083728747Q381.9529290551384 373.0481053481167 388.6504113324406 372.72355774877605Q395.34789360974287 372.4285144766482 403.31406195719484 372.31049716779705Q411.2802303046468 372.1924798589459 422.108318391739 372.1924798589459ZM374.5178385975165 373.90373083728747L392.8105214694433 373.90373083728747L392.8105214694433 520.481228430404L374.5178385975165 520.481228430404L374.5178385975165 373.90373083728747Z " fill="#ff7f00" transform="matrix(0.4839267251133159,0,0,0.4839267251133159,0,83.5916162674775)"/><path d="M706.9742041114316 393.0456569287797L706.9742041114316 393.0456569287797Q719.1170614993753 393.0456569287797 726.2599187864007 395.2678791958543Q733.4027760734264 397.4901014629289 736.6170618525879 403.0456571306155Q739.8313476317494 408.6210540685438 739.8313476317494 418.7599431620718L739.8313476317494 418.7599431620718Q739.8313476317494 429.33534020091804 735.9027761238854 434.91073713884634Q731.9742046160213 440.48613407677465 723.1249980882062 441.3393086971694L723.1249980882062 441.3393086971694L723.1249980882062 441.9147055341798Q734.117061802129 442.90676904626673 738.4821412553113 449.6329596582158Q742.8273794382518 456.33930899992316 742.8273794382518 468.20438860448235L742.8273794382518 468.20438860448235Q742.8273794382518 478.34327769801035 739.6924587400572 483.91867463593866Q736.5575380418627 489.47423030362523 729.6130934572545 491.6964525706999Q722.688490142888 493.9186748377745 711.3988073753392 493.9186748377745L711.3988073753392 493.9186748377745Q702.9861087928424 493.9186748377745 696.9146800988706 493.83930975680755Q690.8432514048989 493.7599446758406 685.6845211420471 493.4821668924563Q680.545632149437 493.20438910907194 674.9702352115087 492.7678811637537L674.9702352115087 492.7678811637537L676.9742035059242 482.76788096191785Q680.1289654743605 482.90676985361006 688.8988069212086 483.0456587453022Q697.6884896382984 483.2043889072361 709.4146803511654 483.2043889072361L709.4146803511654 483.2043889072361Q717.2718233668936 483.2043889072361 721.7559504415262 481.8353412605562Q726.2599187864007 480.48613488411803 728.1845219998493 476.77581734891305Q730.1289664835397 473.0456585434664 730.1289664835397 466.06153141837467L730.1289664835397 466.06153141837467Q730.1289664835397 458.3432772943387 728.1249981891242 454.1964518138155Q726.1210298947086 450.0496263332923 721.398807577175 448.34327709250283Q716.6964265298832 446.61708658147165 708.541664460529 446.4781976897795L708.541664460529 446.4781976897795L676.835314614232 446.4781976897795L676.835314614232 436.9147054332619L708.4027755688368 436.9147054332619Q715.5456328558623 436.7758165415697 719.7718234173526 435.4067688948898Q723.9781727086009 434.0575625184516 725.8432521113243 430.4067687939719Q727.688490243806 426.77581633973386 727.688490243806 420.18851461947696L727.688490243806 420.18851461947696Q727.688490243806 413.4821652777696 725.6845219493904 409.91073663425675Q723.7003949252166 406.339307990744 719.05753768865 405.049625425031Q714.4146804520833 403.7599428593181 706.3988072744213 403.7599428593181L706.3988072744213 403.7599428593181Q699.4146801493296 403.7599428593181 693.8392832114013 403.7599428593181Q688.263886273473 403.7599428593181 684.0575369822245 403.83930794028504Q679.8313464207345 403.91867302125195 676.9742035059242 404.1964508046363L676.9742035059242 404.1964508046363L674.9702352115087 394.19645060280044Q679.9702353124266 393.62105376579007 684.474203657301 393.40279979313095Q688.9781720021755 393.20438709071357 694.3353149674447 393.1250220097466Q699.692457932714 393.0456569287797 706.9742041114316 393.0456569287797ZM674.9702352115087 394.19645060280044L687.271822761386 394.19645060280044L687.271822761386 492.7678811637537L674.9702352115087 492.7678811637537L674.9702352115087 394.19645060280044ZM791.696428043652 421.4781971851899L791.696428043652 421.4781971851899Q803.7003965399033 421.4781971851899 810.9027776376541 425.0496258287027Q818.1250000056467 428.6210544722155 821.2599207038412 436.69645146060276Q824.4146826722775 444.77184844899006 824.4146826722775 458.0456582407126L824.4146826722775 458.0456582407126Q824.4146826722775 471.33930930267695 821.2599207038412 479.4147062910642Q818.1250000056467 487.4901032794515 810.9027776376541 491.06153192296426Q803.7003965399033 494.6329605664771 791.696428043652 494.6329605664771L791.696428043652 494.6329605664771Q779.8313484390927 494.6329605664771 772.628967341342 491.06153192296426Q765.4067449733494 487.4901032794515 762.1924591941879 479.4147062910642Q758.9781734150264 471.33930930267695 758.9781734150264 458.0456582407126L758.9781734150264 458.0456582407126Q758.9781734150264 444.77184844899006 762.1924591941879 436.69645146060276Q765.4067449733494 428.6210544722155 772.628967341342 425.0496258287027Q779.8313484390927 421.4781971851899 791.696428043652 421.4781971851899ZM791.696428043652 431.7758164406518L791.696428043652 431.7758164406518Q784.1170628113082 431.7758164406518 779.7718246283675 434.11708632917686Q775.4067451751853 436.47819748794365 773.5416657724619 442.19248331756415Q771.6964276399802 447.9067691471846 771.6964276399802 458.0456582407126L771.6964276399802 458.0456582407126Q771.6964276399802 468.20438860448235 773.5416657724619 473.91867443410285Q775.4067451751853 479.6329602637233 779.7718246283675 481.97423015224837Q784.1170628113082 484.33534131101516 791.696428043652 484.33534131101516L791.696428043652 484.33534131101516Q799.2559520057541 484.33534131101516 803.7003965399033 481.97423015224837Q808.1249998038109 479.6329602637233 809.9702379362924 473.91867443410285Q811.8353173390158 468.20438860448235 811.8353173390158 458.0456582407126L811.8353173390158 458.0456582407126Q811.8353173390158 447.9067691471846 809.9702379362924 442.19248331756415Q808.1249998038109 436.47819748794365 803.7003965399033 434.11708632917686Q799.2559520057541 431.7758164406518 791.696428043652 431.7758164406518ZM787.5496025631288 391.0615299046059L796.2599201992516 391.0615299046059L815.2678570908364 409.19645090555423L810.982142718621 414.47422878985645L792.5496026640467 400.62502216112347L791.3988089900258 400.62502216112347L772.8273800437594 414.47422878985645L768.7003958334778 409.19645090555423L787.5496025631288 391.0615299046059ZM885.6845251787638 421.4781971851899L885.6845251787638 421.4781971851899Q904.5535731786564 421.4781971851899 904.5535731786564 440.62502296846685L904.5535731786564 440.62502296846685L904.5535731786564 492.7678811637537L892.4107157907129 492.7678811637537L892.4107157907129 444.0575627202875Q892.4107157907129 437.053594324954 890.1289697129131 434.41470538280294Q887.8273823648715 431.7758164406518 882.4107155888771 431.7758164406518L882.4107155888771 431.7758164406518Q875.982144030554 431.7758164406518 869.5535724722309 434.91073713884634Q863.125000913908 438.04565783704095 854.2559531158512 443.48216588327705L854.2559531158512 443.48216588327705L853.7003975490825 434.7718482471542Q861.835318348195 428.4821655805233 869.8313502556152 424.9901020179775Q877.8273821630356 421.4781971851899 885.6845251787638 421.4781971851899ZM843.4027782936206 423.2043876962211L853.7003975490825 423.2043876962211L854.6924610611694 436.47819748794365L855.5456356815641 438.6210546740513L855.5456356815641 492.7678811637537L843.4027782936206 492.7678811637537L843.4027782936206 423.2043876962211ZM953.9781773508253 421.4781971851899L953.9781773508253 421.4781971851899Q965.1289712266819 421.4781971851899 971.6170665957301 423.75994326298974Q978.1250032350201 426.06153061103134 980.9027810688633 430.90280055001534Q983.7004001729484 435.76391175924107 983.7004001729484 443.62105477496925L983.7004001729484 443.62105477496925Q983.7004001729484 451.2004200073131 980.9027810688633 456.12105502726405Q978.1250032350201 461.06153131745674 971.5575427850049 463.4028012059818Q964.9702410647479 465.7639123647486 953.8392884591331 465.7639123647486L953.8392884591331 465.7639123647486Q942.6884945832765 465.7639123647486 936.2003992142281 463.4028012059818Q929.6924625749382 461.06153131745674 926.9146847410949 456.200420108231Q924.1170656370099 451.33930889900523 924.1170656370099 443.7599436666614L924.1170656370099 443.7599436666614Q924.1170656370099 435.9028006509333 926.9146847410949 430.9821656309823Q929.6924625749382 426.06153061103134 936.2599230249534 423.75994326298974Q942.8273834749687 421.4781971851899 953.9781773508253 421.4781971851899ZM953.8392884591331 430.7639116583232L953.8392884591331 430.7639116583232Q943.402780311979 430.7639116583232 939.3353199124227 433.70041965410036Q935.2678595128664 436.6170863796358 935.2678595128664 443.62105477496925L935.2678595128664 443.62105477496925Q935.2678595128664 450.4861342786105 939.3353199124227 453.4821660851129Q943.402780311979 456.4781978916153 953.8392884591331 456.4781978916153L953.8392884591331 456.4781978916153Q964.4146854979792 456.4781978916153 968.4027808165686 453.4821660851129Q972.4107174053995 450.4861342786105 972.4107174053995 443.62105477496925L972.4107174053995 443.62105477496925Q972.4107174053995 436.6170863796358 968.4027808165686 433.70041965410036Q964.4146854979792 430.7639116583232 953.8392884591331 430.7639116583232ZM968.4027808165686 423.2043876962211L991.8353209720609 423.2043876962211L991.1210352433583 429.91073703792847L973.4027809174864 431.33930849533357L968.4027808165686 423.2043876962211ZM934.2559547305378 461.20042020914894L934.2559547305378 461.20042020914894L941.2599231258713 462.1924837212358Q938.8392881563793 464.3353409073435 937.9861135359845 467.41073779481286Q937.113097645348 470.48613468228217 938.482145292028 473.0456585434664Q939.8313516684661 475.6250236748923 944.2559549323737 476.3393094035948L944.2559549323737 476.3393094035948L970.2678602192918 480.48613488411803Q980.1289715294356 481.91470634152313 983.9781779563327 486.617087388815Q987.8273843832299 491.3393097063486 987.8273843832299 500.04962734247147L987.8273843832299 500.04962734247147Q987.8273843832299 508.2043894118257 984.7718287660023 512.9067704591175Q981.6964318785328 517.6289927766511 974.4146856998152 519.6329610710666Q967.1130982508556 521.6170880952404 954.6924630795278 521.6170880952404L954.6924630795278 521.6170880952404Q945.2678597147024 521.6170880952404 938.8392881563793 520.5456595021866Q932.4107165980563 519.4742309091328 928.4821450901921 516.9742308586738Q924.5535735823281 514.4742308082149 922.8273830712969 510.48613548962555Q921.1210338305075 506.4781989007945 921.1210338305075 500.4861352877897L921.1210338305075 500.4861352877897Q921.1210338305075 495.9028018619483 922.4702402069456 492.8472462447207Q923.8392878536256 489.7718493572513 926.755954579161 487.33137311751756Q929.6924625749382 484.91073814802553 934.4146848924718 482.6289920702257L934.4146848924718 482.6289920702257L942.9861136369025 477.9067697526921L948.541669304589 479.91073804710766L941.5575421794974 485.1885159314099Q938.7003992646871 487.33137311751756 936.7559547809968 489.41470649290005Q934.8313515675483 491.47819859804076 933.8988118661865 493.83930975680755Q932.9861134350667 496.20042091557434 932.9861134350667 499.4742305054611L932.9861134350667 499.4742305054611Q932.9861134350667 504.3353417146868 934.8313515675483 506.9147068461127Q936.6964309702715 509.4742307072969 941.3988120175634 510.4067704086586Q946.121034335097 511.3393101100203 954.5535741878356 511.3393101100203L954.5535741878356 511.3393101100203Q962.9861140405742 511.3393101100203 967.6289712771409 510.34724659793335Q972.2718285137074 509.33534181560475 974.1170666461891 506.7758179544206Q975.9821460489125 504.1964528229947 975.9821460489125 499.4742305054611L975.9821460489125 499.4742305054611Q975.9821460489125 495.9028018619483 975.0496063475507 494.05756372946666Q974.1170666461891 492.19248432674334 971.5575427850049 491.20042081465647Q968.978177653579 490.1885160323278 963.978177552661 489.47423030362523L963.978177552661 489.47423030362523L938.9781770480714 486.06153182204633Q934.553573784164 485.48613498503596 931.9146848420128 483.2043889072361Q929.25595462962 480.90280155919453 928.263891117533 477.767880861Q927.2718276054461 474.6329601628054 927.6884942805226 471.41867438364386Q928.125002225841 468.20438860448235 929.8313514666304 465.40676950039733Q931.5575419776616 462.62899166655404 934.2559547305378 461.20042020914894ZM1061.974211276604 394.19645060280044L1074.5535766098656 394.19645060280044L1074.5535766098656 492.7678811637537L1061.974211276604 492.7678811637537L1061.974211276604 394.19645060280044ZM1030.267861430307 394.19645060280044L1106.398815347855 394.19645060280044L1106.398815347855 405.3472444786571L1030.267861430307 405.3472444786571L1030.267861430307 394.19645060280044ZM1120.5456410302138 423.2043876962211L1132.6884984181572 423.2043876962211L1132.6884984181572 472.0535950313795Q1132.5496095264652 478.6210554813947 1135.1289746578911 481.33930950451276Q1137.6884985190752 484.0575635276308 1143.7004034023219 484.0575635276308L1143.7004034023219 484.0575635276308Q1149.5535781236345 484.0575635276308 1155.3273877639801 481.2599444235458Q1161.1210386745674 478.4821665897025 1169.25595947368 473.2043887054003L1169.25595947368 473.2043887054003L1170.843261093019 481.6170872878971Q1162.688499023665 488.04565884622014 1155.0496099805957 491.3393097063486Q1147.4107209375268 494.6329605664771 1139.5535779217985 494.6329605664771L1139.5535779217985 494.6329605664771Q1120.5456410302138 494.6329605664771 1120.5456410302138 475.4861347832001L1120.5456410302138 475.4861347832001L1120.5456410302138 423.2043876962211ZM1167.986118178209 423.2043876962211L1180.1289755661523 423.2043876962211L1180.1289755661523 492.7678811637537L1170.4067531477008 492.7678811637537L1169.25595947368 479.6329602637233L1167.986118178209 477.49010307761563L1167.986118178209 423.2043876962211ZM1250.9821515993979 423.2043876962211L1264.1170724994283 423.2043876962211L1236.2599290800285 496.61708759065084Q1234.553579839239 501.20042101649227 1231.9742147078132 505.62502428039977Q1229.4146908466291 510.0496275443073 1225.763897122149 513.7004212687871Q1222.1131033976694 517.3313737230251 1217.1924683777186 519.6329610710666Q1212.2718333577675 521.9147071488665 1205.8432617994445 522.1924849322509L1205.8432617994445 522.1924849322509L1204.6924681254236 514.1964530248305Q1213.125007978162 511.4781990017125 1217.6885001337619 506.9147068461127Q1222.2718335596035 502.3313734202713 1224.9702463124795 495.7639129702561L1224.9702463124795 495.7639129702561L1228.4027860643005 487.4901032794515Q1229.553579738321 484.63296036464124 1230.6845321421001 481.2004206128206Q1231.835325816121 477.767880861 1232.827389328208 475.0496268378819L1232.827389328208 475.0496268378819L1250.9821515993979 423.2043876962211ZM1193.839293303193 423.2043876962211L1206.8353253115315 423.2043876962211L1225.267865366106 475.0496268378819Q1225.9821510948084 477.19248402398955 1226.6964368235108 479.27581739937204Q1227.4107225522134 481.33930950451276 1227.82738922729 483.48216669062043L1227.82738922729 483.48216669062043L1231.1210400874184 483.48216669062043L1227.1131034985874 492.7678811637537L1223.4027859633825 492.7678811637537Q1221.9742145059772 492.7678811637537 1220.7638970212313 491.914706543359Q1219.5535795364854 491.06153192296426 1219.1170715911671 489.63296046555917L1219.1170715911671 489.63296046555917L1193.839293303193 423.2043876962211ZM1306.5575495465052 421.4781971851899L1306.5575495465052 421.4781971851899Q1322.2718355779618 421.4781971851899 1329.3353277840204 427.19248301481036Q1336.3988199900791 432.90676884443087 1336.3988199900791 444.1964516119796L1336.3988199900791 444.1964516119796Q1336.557550152013 453.4821660851129 1332.5496135631818 458.70042015868995Q1328.5416769743508 463.918674232267 1319.831359338228 463.918674232267L1319.831359338228 463.918674232267L1279.2559616938743 463.918674232267L1279.2559616938743 454.47422959719984L1316.6964386400334 454.47422959719984Q1321.3988196873254 454.47422959719984 1322.8273911447302 451.2599438180383Q1324.2559626021355 448.0456580388768 1324.2559626021355 444.1964516119796L1324.2559626021355 444.1964516119796Q1324.1170737104433 437.49010227027225 1320.2678672835461 434.63295935546205Q1316.3988195864074 431.7758164406518 1307.113105113274 431.7758164406518L1307.113105113274 431.7758164406518Q1299.553581151172 431.7758164406518 1295.1885016979898 433.9781974374847Q1290.843263515049 436.2004197045593 1289.0575491932925 441.6964515615207Q1287.2718348715364 447.1924834184821 1287.2718348715364 457.05359472862574L1287.2718348715364 457.05359472862574Q1287.2718348715364 468.20438860448235 1289.4742158683691 474.057563325795Q1291.6964381354437 479.91073804710766 1296.5575493446697 482.05359523321533Q1301.3988192836537 484.196452419323 1309.4146924613156 484.196452419323L1309.4146924613156 484.196452419323Q1314.9702481290021 484.196452419323 1321.6170736599845 483.70042066327954Q1328.2638991909664 483.2043889072361 1333.5416770752688 482.49010317853356L1333.5416770752688 482.49010317853356L1334.8313596409819 490.62502397764604Q1331.5575500510952 491.914706543359 1326.7559626525945 492.7678811637537Q1321.9742165243358 493.62105578414844 1316.9146926126925 494.05756372946666Q1311.8353274308076 494.47423040454316 1307.8273908419767 494.47423040454316L1307.8273908419767 494.47423040454316Q1295.843263615967 494.47423040454316 1288.5416761670074 490.84327795030515Q1281.2599299882897 487.1924842258254 1277.906755317436 479.1170872374381Q1274.5535806465823 471.0615315192926 1274.5535806465823 457.76788045732826L1274.5535806465823 457.76788045732826Q1274.5535806465823 444.0575627202875 1277.906755317436 436.1210546235924Q1281.2599299882897 428.204387797139 1288.34326346459 424.8313718560436Q1295.4067556706489 421.4781971851899 1306.5575495465052 421.4781971851899ZM1284.5535808484183 407.6289905564569L1302.6885018493665 391.77581563330847L1311.3988194854894 391.77581563330847L1329.4146928649873 407.6289905564569L1325.4067562761563 412.90676844075915L1307.6885019502845 400.7639110528157L1306.5575495465052 400.7639110528157L1288.8392952206334 412.90676844075915L1284.5535808484183 407.6289905564569ZM1320.5456450669305 394.0575617111083L1335.4067564779923 376.6170851686208L1343.4027883854126 384.3353392926568L1325.128978492772 398.621053866708L1320.5456450669305 394.0575617111083ZM1359.9702490372636 402.628990455539L1372.113106425207 402.628990455539L1372.113106425207 473.6210553804768Q1372.113106425207 478.6210554813947 1374.2559636113149 480.7639126675024Q1376.3988207974223 482.90676985361006 1381.5575510602741 482.90676985361006L1381.5575510602741 482.90676985361006L1392.1131068288787 482.90676985361006L1393.5416782862837 492.19248432674334Q1391.259932208484 492.7678811637537 1388.2639004019816 493.20438910907194Q1385.267868595479 493.62105578414844 1382.410725680669 493.83930975680755Q1379.553582765859 494.05756372946666 1377.8273922548276 494.05756372946666L1377.8273922548276 494.05756372946666Q1369.1170746187047 494.05756372946666 1364.553582463105 489.19645252024094Q1359.9702490372636 484.33534131101516 1359.9702490372636 475.1885157295741L1359.9702490372636 475.1885157295741L1359.9702490372636 402.628990455539ZM1361.1210427112844 423.2043876962211L1394.2559640149864 423.2043876962211L1394.2559640149864 432.76787995273867L1347.4107249742435 432.76787995273867L1347.4107249742435 423.9186734249236L1361.1210427112844 423.2043876962211ZM1464.97025115654 394.19645060280044L1477.5496164898016 394.19645060280044L1477.5496164898016 492.7678811637537L1464.97025115654 492.7678811637537L1464.97025115654 394.19645060280044ZM1433.2639013102428 394.19645060280044L1509.4146964980325 394.19645060280044L1509.4146964980325 405.3472444786571L1433.2639013102428 405.3472444786571L1433.2639013102428 394.19645060280044ZM1523.9781888554678 423.2043876962211L1533.4027922202933 423.2043876962211L1534.9702525693908 436.47819748794365L1536.1210462434112 438.6210546740513L1536.1210462434112 492.7678811637537L1523.9781888554678 492.7678811637537L1523.9781888554678 423.2043876962211ZM1564.4146976081295 421.4781971851899L1567.549618306324 421.4781971851899L1566.121046848919 432.90676884443087L1562.113110260088 432.90676884443087Q1555.982157755391 432.90676884443087 1549.8313639804521 435.4067688948898Q1543.7004114757553 437.90676894534874 1534.8313636776986 442.4901023711902L1534.8313636776986 442.4901023711902L1533.8393001656116 434.91073713884634Q1541.5575542896474 428.6210544722155 1549.3353322244088 425.0496258287027Q1557.1131101591702 421.4781971851899 1564.4146976081295 421.4781971851899L1564.4146976081295 421.4781971851899ZM1614.1170795636826 421.4781971851899L1614.1170795636826 421.4781971851899Q1621.8353336877187 421.4781971851899 1627.1924766529878 423.56153056057235Q1632.549619618257 425.62502266571306 1635.2678736413752 430.48613387493884Q1637.986127664493 435.34724508416457 1637.986127664493 443.7599436666614L1637.986127664493 443.7599436666614L1637.986127664493 492.7678811637537L1628.402794137734 492.7678811637537L1626.5575560052523 477.6289919693078L1625.6845401146159 476.06153162021053L1625.6845401146159 443.7599436666614Q1625.6845401146159 437.33137210833837 1622.7678733890803 434.5535942744951Q1619.8313653933033 431.7758164406518 1611.5575557024986 431.7758164406518L1611.5575557024986 431.7758164406518Q1606.1210476562624 431.7758164406518 1597.906761776183 432.33137200742044Q1589.6924758961034 432.90676884443087 1581.696443988683 433.6210545731334L1581.696443988683 433.6210545731334L1580.5456503146625 424.6329591536262Q1585.406761523888 423.75994326298974 1591.2004124344755 423.04565753428716Q1596.9742220748212 422.33137180558464 1602.9861269580676 421.91470513050814Q1608.9781905710727 421.4781971851899 1614.1170795636826 421.4781971851899ZM1596.6964442914368 449.91073744160013L1632.2718418348727 449.91073744160013L1632.1131116729387 459.05756302304127L1598.8393014775445 459.1964519147334Q1593.8393013766265 459.33534080642556 1591.8353330822113 461.8353408568845Q1589.8313647877956 464.3353409073435 1589.8313647877956 468.759944171251L1589.8313647877956 468.759944171251L1589.8313647877956 473.2043887054003Q1589.8313647877956 478.6210554813947 1592.4107299192215 481.12105553185364Q1594.9702537804058 483.6210555823126 1600.684539610026 483.6210555823126L1600.684539610026 483.6210555823126Q1604.692476198857 483.6210555823126 1609.771841380742 482.13296031418224Q1614.831365292385 480.6250237758102 1619.9702542849952 477.49010307761563Q1625.128984547847 474.33534110917935 1629.4146989200624 469.47422989995357L1629.4146989200624 469.47422989995357L1629.4146989200624 478.4821665897025Q1627.8273973007235 480.48613488411803 1624.910730575188 483.12502382626917Q1621.974222579411 485.76391276842025 1617.9067621798547 488.26391281887925Q1613.8393017802985 490.7639128693382 1608.8988254901058 492.41073829940245Q1603.9781904701547 494.05756372946666 1598.263904640534 494.05756372946666L1598.263904640534 494.05756372946666Q1592.1131108655957 494.05756372946666 1587.4107298183037 491.835341462392Q1582.6885075007701 489.63296046555917 1580.049618558619 485.26788101237685Q1577.4107296164677 480.90280155919453 1577.4107296164677 474.6329601628054L1577.4107296164677 474.6329601628054L1577.4107296164677 467.05359493046154Q1577.4107296164677 458.91867413134906 1582.470253528111 454.4147057864746Q1587.549618709996 449.91073744160013 1596.6964442914368 449.91073744160013L1596.6964442914368 449.91073744160013ZM1624.2559686572106 392.05359341669276L1624.2559686572106 392.05359341669276L1630.5456513238414 392.9067680370875Q1630.9821592691599 398.4821649750158 1628.402794137734 402.68851426626424Q1625.8432702765497 406.91470482775435 1620.982159067324 409.3353397972464Q1616.121047858098 411.77581603698013 1609.1170794627647 411.77581603698013L1609.1170794627647 411.77581603698013Q1602.2718412293652 411.77581603698013 1597.3313649391723 409.3353397972464Q1592.4107299192215 406.91470482775435 1589.9107298687625 402.68851426626424Q1587.4107298183037 398.4821649750158 1587.688507601688 392.9067680370875L1587.688507601688 392.9067680370875L1593.9781902683187 392.05359341669276Q1593.8393013766265 397.0535935176107 1597.8273966952158 399.91073643242095Q1601.8353332840468 402.76787934723114 1609.255968354457 402.76787934723114L1609.255968354457 402.76787934723114Q1616.3988256414825 402.76787934723114 1620.3273971493466 399.91073643242095Q1624.2559686572106 397.0535935176107 1624.2559686572106 392.05359341669276ZM1602.4107301210572 387.4901012610931L1619.4146987182264 372.19248190471325L1625.9821591682419 381.0615297027701L1606.2599365479543 392.6289902537032L1602.4107301210572 387.4901012610931ZM1701.9742241940974 421.4781971851899L1701.9742241940974 421.4781971851899Q1720.84327219399 421.4781971851899 1720.84327219399 440.62502296846685L1720.84327219399 440.62502296846685L1720.84327219399 492.7678811637537L1708.7004148060466 492.7678811637537L1708.7004148060466 444.0575627202875Q1708.7004148060466 437.053594324954 1706.398827458005 434.41470538280294Q1704.1170813802053 431.7758164406518 1698.7004146042107 431.7758164406518L1698.7004146042107 431.7758164406518Q1692.2718430458879 431.7758164406518 1685.8432714875646 434.91073713884634Q1679.4146999292418 438.04565783704095 1670.5456521311849 443.48216588327705L1670.5456521311849 443.48216588327705L1669.9702552941744 434.7718482471542Q1678.1250173635287 428.4821655805233 1686.121049270949 424.9901020179775Q1694.1170811783693 421.4781971851899 1701.9742241940974 421.4781971851899ZM1659.6924773089543 423.2043876962211L1669.9702552941744 423.2043876962211L1670.982160076503 436.47819748794365L1671.835334696898 438.6210546740513L1671.835334696898 492.7678811637537L1659.6924773089543 492.7678811637537L1659.6924773089543 423.2043876962211ZM1770.267876366159 421.4781971851899L1770.267876366159 421.4781971851899Q1781.3988289717738 421.4781971851899 1787.9067656110635 423.75994326298974Q1794.4147022503537 426.06153061103134 1797.1924800841973 430.90280055001534Q1799.9702579180405 435.76391175924107 1799.9702579180405 443.62105477496925L1799.9702579180405 443.62105477496925Q1799.9702579180405 451.2004200073131 1797.1924800841973 456.12105502726405Q1794.4147022503537 461.06153131745674 1787.8274005300966 463.4028012059818Q1781.2599400800816 465.7639123647486 1770.1289874744668 465.7639123647486L1770.1289874744668 465.7639123647486Q1758.97819359861 465.7639123647486 1752.4702569593203 463.4028012059818Q1745.9821615902717 461.06153131745674 1743.184542486187 456.200420108231Q1740.4067646523433 451.33930889900523 1740.4067646523433 443.7599436666614L1740.4067646523433 443.7599436666614Q1740.4067646523433 435.9028006509333 1743.184542486187 430.9821656309823Q1745.9821615902717 426.06153061103134 1752.5496220402872 423.75994326298974Q1759.1170824903022 421.4781971851899 1770.267876366159 421.4781971851899ZM1770.1289874744668 430.7639116583232L1770.1289874744668 430.7639116583232Q1759.6924793273126 430.7639116583232 1755.6250189277564 433.70041965410036Q1751.5575585282002 436.6170863796358 1751.5575585282002 443.62105477496925L1751.5575585282002 443.62105477496925Q1751.5575585282002 450.4861342786105 1755.6250189277564 453.4821660851129Q1759.6924793273126 456.4781978916153 1770.1289874744668 456.4781978916153L1770.1289874744668 456.4781978916153Q1780.6845432430712 456.4781978916153 1784.6924798319021 453.4821660851129Q1788.7004164207335 450.4861342786105 1788.7004164207335 443.62105477496925L1788.7004164207335 443.62105477496925Q1788.7004164207335 436.6170863796358 1784.6924798319021 433.70041965410036Q1780.6845432430712 430.7639116583232 1770.1289874744668 430.7639116583232ZM1784.6924798319021 423.2043876962211L1808.1250199873946 423.2043876962211L1807.410734258692 429.91073703792847L1789.69247993282 431.33930849533357L1784.6924798319021 423.2043876962211ZM1750.5456537458715 461.20042020914894L1750.5456537458715 461.20042020914894L1757.5496221412047 462.1924837212358Q1755.1289871717129 464.3353409073435 1754.2559712810764 467.41073779481286Q1753.4027966606816 470.48613468228217 1754.771844307362 473.0456585434664Q1756.1210506838 475.6250236748923 1760.5456539477075 476.3393094035948L1760.5456539477075 476.3393094035948L1786.5575592346256 480.48613488411803Q1796.3988292745278 481.91470634152313 1800.2678769716665 486.617087388815Q1804.1170833985636 491.3393097063486 1804.1170833985636 500.04962734247147L1804.1170833985636 500.04962734247147Q1804.1170833985636 508.2043894118257 1801.041686511094 512.9067704591175Q1797.9861308938664 517.6289927766511 1790.6845434449071 519.6329610710666Q1783.402797266189 521.6170880952404 1770.9821620948612 521.6170880952404L1770.9821620948612 521.6170880952404Q1761.5575587300361 521.6170880952404 1755.1289871717129 520.5456595021866Q1748.7004156133896 519.4742309091328 1744.771844105526 516.9742308586738Q1740.843272597662 514.4742308082149 1739.1170820866307 510.48613548962555Q1737.410732845841 506.4781989007945 1737.410732845841 500.4861352877897L1737.410732845841 500.4861352877897Q1737.410732845841 495.9028018619483 1738.7599392222794 492.8472462447207Q1740.1289868689594 489.7718493572513 1743.0456535944948 487.33137311751756Q1745.9821615902717 484.91073814802553 1750.6845426375637 482.6289920702257L1750.6845426375637 482.6289920702257L1759.2559713819944 477.9067697526921L1764.8313683199228 479.91073804710766L1757.8273999245891 485.1885159314099Q1754.970257009779 487.33137311751756 1753.0456537963307 489.41470649290005Q1751.121050582882 491.47819859804076 1750.1885108815202 493.83930975680755Q1749.2559711801584 496.20042091557434 1749.2559711801584 499.4742305054611L1749.2559711801584 499.4742305054611Q1749.2559711801584 504.3353417146868 1751.121050582882 506.9147068461127Q1752.9861299856054 509.4742307072969 1757.6885110328974 510.4067704086586Q1762.410733350431 511.3393101100203 1770.8432732031695 511.3393101100203L1770.8432732031695 511.3393101100203Q1779.2559717856664 511.3393101100203 1783.8988290222326 510.34724659793335Q1788.5416862587997 509.33534181560475 1790.4067656615227 506.7758179544206Q1792.2718450642462 504.1964528229947 1792.2718450642462 499.4742305054611L1792.2718450642462 499.4742305054611Q1792.2718450642462 495.9028018619483 1791.3393053628845 494.05756372946666Q1790.4067656615227 492.19248432674334 1787.8274005300966 491.20042081465647Q1785.2678766689125 490.1885160323278 1780.267876567995 489.47423030362523L1780.267876567995 489.47423030362523L1755.267876063405 486.06153182204633Q1750.8432727994975 485.48613498503596 1748.184542587105 483.2043889072361Q1745.545653644954 480.90280155919453 1744.553590132867 477.767880861Q1743.5416853505383 474.6329601628054 1743.9781932958565 471.41867438364386Q1744.4147012411747 468.20438860448235 1746.121050481964 465.40676950039733Q1747.8273997227536 462.62899166655404 1750.5456537458715 461.20042020914894Z " fill="#ffffff" transform="matrix(0.4839267251133159,0,0,0.4839267251133159,0,83.5916162674775)"/></g></svg>